<?xml version="1.0" encoding="utf-8"?>
<svg version="1.1" xmlns:xlink="http://www.w3.org/1999/xlink" width="32px" height="32px" xmlns="http://www.w3.org/2000/svg">
  <defs>
    <pattern id="BGPattern" patternUnits="userSpaceOnUse" alignment="0 0" imageRepeat="None" />
    <mask fill="white" id="Clip1">
      <path d="M 0 2.024576425552368  C 0 1.49424809217453  0.21047198794416494 0.9856318235397339  0.5851313511628852 0.6105764508247375  C 0.9599038778006607 0.23563432693481445  1.4681365165369278 0.025003511458635247  1.9980649055341557 0.02500351145863533  C 2.5279932945313837 0.02500351145863519  3.036226171506428 0.23563432693481445  3.410998698144203 0.6105764508247375  C 3.410998698144203 0.6105764508247375  15.987506758536304 13.196576118469238  15.987506758536304 13.196576118469238  C 15.987506758536304 13.196576118469238  28.564015533644735 0.6105764508247375  28.564015533644735 0.6105764508247375  C 28.748370074517517 0.41955605149269104  28.968892879984 0.267191618680954  29.21271685237975 0.1623736172914505  C 29.456540824775498 0.05755561590194702  29.718783275256676 0.0023831462021917105  29.984141635811767 7.551349699497223E-05  C 30.249499996366858 -0.002232119208201766  30.51265977036879 0.04837130010128021  30.758267094019384 0.1489330679178238  C 31.00387441766998 0.24949483573436737  31.22700925819711 0.3980010598897934  31.414653042743968 0.5857864618301392  C 31.602296827290825 0.7735718637704849  31.750691071132263 0.9968757033348083  31.851177000809656 1.2426683902740479  C 31.951662930487046 1.4884610772132874  32.00222965600725 1.7518201768398285  31.999923763591372 2.017378807067871  C 31.997617871175493 2.2829374372959137  31.942486910863796 2.54537732899189  31.837747957430064 2.7893853187561035  C 31.733009003996337 3.033393308520317  31.580758269952884 3.2540827840566635  31.389881927670945 3.4385764598846436  C 31.389881927670945 3.4385764598846436  18.813373152562516 16.02457618713379  18.813373152562516 16.02457618713379  C 18.813373152562516 16.02457618713379  31.389881927670945 28.610576629638672  31.389881927670945 28.610576629638672  C 31.753923316178952 28.987780958414078  31.955359953330216 29.492984294891357  31.950806551423423 30.017377853393555  C 31.946253149516632 30.541771411895752  31.736074318109996 31.043396949768066  31.365537736486232 31.414213180541992  C 30.99500115486247 31.785029411315918  30.4937539153054 31.995366867631674  29.969755825503913 31.999923706054688  C 29.445757735702426 32.0044805444777  28.94093539571878 31.80289188027382  28.564015533644735 31.438575744628906  C 28.564015533644735 31.438575744628906  15.987506758536304 18.852575302124023  15.987506758536304 18.852575302124023  C 15.987506758536304 18.852575302124023  3.410998698144203 31.438575744628906  3.410998698144203 31.438575744628906  C 3.0340788360701607 31.80289188027382  2.5292553048926263 32.0044805444777  2.00525721509114 31.999923706054688  C 1.4812591252896536 31.995366867631674  0.9800123622101363 31.785029411315918  0.6094757805863747 31.414213180541992  C 0.23893919896261306 31.043396949768066  0.028759958083078387 30.541771411895752  0.024206556176286687 30.017377853393555  C 0.01965315426949499 29.492984294891357  0.2210899626548805 28.987780958414078  0.5851313511628852 28.610576629638672  C 0.5851313511628852 28.610576629638672  13.161639411554985 16.02457618713379  13.161639411554985 16.02457618713379  C 13.161639411554985 16.02457618713379  0.5851313511628852 3.4385764598846436  0.5851313511628852 3.4385764598846436  C 0.21047198794416494 3.063521087169647  0 2.5549047589302063  0 2.024576425552368  Z " fill-rule="evenodd" />
    </mask>
  </defs>
  <g>
    <path d="M 0 2.024576425552368  C 0 1.49424809217453  0.21047198794416494 0.9856318235397339  0.5851313511628852 0.6105764508247375  C 0.9599038778006607 0.23563432693481445  1.4681365165369278 0.025003511458635247  1.9980649055341557 0.02500351145863533  C 2.5279932945313837 0.02500351145863519  3.036226171506428 0.23563432693481445  3.410998698144203 0.6105764508247375  C 3.410998698144203 0.6105764508247375  15.987506758536304 13.196576118469238  15.987506758536304 13.196576118469238  C 15.987506758536304 13.196576118469238  28.564015533644735 0.6105764508247375  28.564015533644735 0.6105764508247375  C 28.748370074517517 0.41955605149269104  28.968892879984 0.267191618680954  29.21271685237975 0.1623736172914505  C 29.456540824775498 0.05755561590194702  29.718783275256676 0.0023831462021917105  29.984141635811767 7.551349699497223E-05  C 30.249499996366858 -0.002232119208201766  30.51265977036879 0.04837130010128021  30.758267094019384 0.1489330679178238  C 31.00387441766998 0.24949483573436737  31.22700925819711 0.3980010598897934  31.414653042743968 0.5857864618301392  C 31.602296827290825 0.7735718637704849  31.750691071132263 0.9968757033348083  31.851177000809656 1.2426683902740479  C 31.951662930487046 1.4884610772132874  32.00222965600725 1.7518201768398285  31.999923763591372 2.017378807067871  C 31.997617871175493 2.2829374372959137  31.942486910863796 2.54537732899189  31.837747957430064 2.7893853187561035  C 31.733009003996337 3.033393308520317  31.580758269952884 3.2540827840566635  31.389881927670945 3.4385764598846436  C 31.389881927670945 3.4385764598846436  18.813373152562516 16.02457618713379  18.813373152562516 16.02457618713379  C 18.813373152562516 16.02457618713379  31.389881927670945 28.610576629638672  31.389881927670945 28.610576629638672  C 31.753923316178952 28.987780958414078  31.955359953330216 29.492984294891357  31.950806551423423 30.017377853393555  C 31.946253149516632 30.541771411895752  31.736074318109996 31.043396949768066  31.365537736486232 31.414213180541992  C 30.99500115486247 31.785029411315918  30.4937539153054 31.995366867631674  29.969755825503913 31.999923706054688  C 29.445757735702426 32.0044805444777  28.94093539571878 31.80289188027382  28.564015533644735 31.438575744628906  C 28.564015533644735 31.438575744628906  15.987506758536304 18.852575302124023  15.987506758536304 18.852575302124023  C 15.987506758536304 18.852575302124023  3.410998698144203 31.438575744628906  3.410998698144203 31.438575744628906  C 3.0340788360701607 31.80289188027382  2.5292553048926263 32.0044805444777  2.00525721509114 31.999923706054688  C 1.4812591252896536 31.995366867631674  0.9800123622101363 31.785029411315918  0.6094757805863747 31.414213180541992  C 0.23893919896261306 31.043396949768066  0.028759958083078387 30.541771411895752  0.024206556176286687 30.017377853393555  C 0.01965315426949499 29.492984294891357  0.2210899626548805 28.987780958414078  0.5851313511628852 28.610576629638672  C 0.5851313511628852 28.610576629638672  13.161639411554985 16.02457618713379  13.161639411554985 16.02457618713379  C 13.161639411554985 16.02457618713379  0.5851313511628852 3.4385764598846436  0.5851313511628852 3.4385764598846436  C 0.21047198794416494 3.063521087169647  0 2.5549047589302063  0 2.024576425552368  Z " fill-rule="nonzero" fill="rgba(0, 0, 0, 1)" stroke="none" class="fill" />
    <path d="M 0 2.024576425552368  C 0 1.49424809217453  0.21047198794416494 0.9856318235397339  0.5851313511628852 0.6105764508247375  C 0.9599038778006607 0.23563432693481445  1.4681365165369278 0.025003511458635247  1.9980649055341557 0.02500351145863533  C 2.5279932945313837 0.02500351145863519  3.036226171506428 0.23563432693481445  3.410998698144203 0.6105764508247375  C 3.410998698144203 0.6105764508247375  15.987506758536304 13.196576118469238  15.987506758536304 13.196576118469238  C 15.987506758536304 13.196576118469238  28.564015533644735 0.6105764508247375  28.564015533644735 0.6105764508247375  C 28.748370074517517 0.41955605149269104  28.968892879984 0.267191618680954  29.21271685237975 0.1623736172914505  C 29.456540824775498 0.05755561590194702  29.718783275256676 0.0023831462021917105  29.984141635811767 7.551349699497223E-05  C 30.249499996366858 -0.002232119208201766  30.51265977036879 0.04837130010128021  30.758267094019384 0.1489330679178238  C 31.00387441766998 0.24949483573436737  31.22700925819711 0.3980010598897934  31.414653042743968 0.5857864618301392  C 31.602296827290825 0.7735718637704849  31.750691071132263 0.9968757033348083  31.851177000809656 1.2426683902740479  C 31.951662930487046 1.4884610772132874  32.00222965600725 1.7518201768398285  31.999923763591372 2.017378807067871  C 31.997617871175493 2.2829374372959137  31.942486910863796 2.54537732899189  31.837747957430064 2.7893853187561035  C 31.733009003996337 3.033393308520317  31.580758269952884 3.2540827840566635  31.389881927670945 3.4385764598846436  C 31.389881927670945 3.4385764598846436  18.813373152562516 16.02457618713379  18.813373152562516 16.02457618713379  C 18.813373152562516 16.02457618713379  31.389881927670945 28.610576629638672  31.389881927670945 28.610576629638672  C 31.753923316178952 28.987780958414078  31.955359953330216 29.492984294891357  31.950806551423423 30.017377853393555  C 31.946253149516632 30.541771411895752  31.736074318109996 31.043396949768066  31.365537736486232 31.414213180541992  C 30.99500115486247 31.785029411315918  30.4937539153054 31.995366867631674  29.969755825503913 31.999923706054688  C 29.445757735702426 32.0044805444777  28.94093539571878 31.80289188027382  28.564015533644735 31.438575744628906  C 28.564015533644735 31.438575744628906  15.987506758536304 18.852575302124023  15.987506758536304 18.852575302124023  C 15.987506758536304 18.852575302124023  3.410998698144203 31.438575744628906  3.410998698144203 31.438575744628906  C 3.0340788360701607 31.80289188027382  2.5292553048926263 32.0044805444777  2.00525721509114 31.999923706054688  C 1.4812591252896536 31.995366867631674  0.9800123622101363 31.785029411315918  0.6094757805863747 31.414213180541992  C 0.23893919896261306 31.043396949768066  0.028759958083078387 30.541771411895752  0.024206556176286687 30.017377853393555  C 0.01965315426949499 29.492984294891357  0.2210899626548805 28.987780958414078  0.5851313511628852 28.610576629638672  C 0.5851313511628852 28.610576629638672  13.161639411554985 16.02457618713379  13.161639411554985 16.02457618713379  C 13.161639411554985 16.02457618713379  0.5851313511628852 3.4385764598846436  0.5851313511628852 3.4385764598846436  C 0.21047198794416494 3.063521087169647  0 2.5549047589302063  0 2.024576425552368  Z " stroke-width="0" stroke-dasharray="0" stroke="rgba(121, 121, 121, 1)" fill="none" class="stroke" mask="url(#Clip1)" />
  </g>
</svg>