<?xml version="1.0" encoding="utf-8"?>
<svg version="1.1" xmlns:xlink="http://www.w3.org/1999/xlink" width="34px" height="32px" xmlns="http://www.w3.org/2000/svg">
  <defs>
    <pattern id="BGPattern" patternUnits="userSpaceOnUse" alignment="0 0" imageRepeat="None" />
    <mask fill="white" id="Clip53">
      <path d="M 0 32  L 0 0  L 34 0  L 34 32  L 0 32  Z " fill-rule="evenodd" />
    </mask>
  </defs>
  <g transform="matrix(1 0 0 1 -19 -16 )">
    <path d="M 0 32  L 0 0  L 34 0  L 34 32  L 0 32  Z " fill-rule="nonzero" fill="rgba(242, 242, 242, 1)" stroke="none" transform="matrix(1 0 0 1 19 16 )" class="fill" />
    <path d="M 0 32  L 0 0  L 34 0  L 34 32  L 0 32  Z " stroke-width="2" stroke-dasharray="0" stroke="rgba(121, 121, 121, 1)" fill="none" transform="matrix(1 0 0 1 19 16 )" class="stroke" mask="url(#Clip53)" />
    <path d="M 33.61314375388195 0.36409999634640144  L 0.3868562461180515 31.6359000036536  M 0.3868562461180515 0.36409999634640144  L 33.61314375388195 31.6359000036536  " stroke-width="1" stroke-dasharray="0" stroke="rgba(121, 121, 121, 1)" fill="none" transform="matrix(1 0 0 1 19 16 )" class="stroke" />
  </g>
</svg>