<?xml version="1.0" encoding="utf-8"?>
<svg version="1.1" xmlns:xlink="http://www.w3.org/1999/xlink" width="7px" height="12px" xmlns="http://www.w3.org/2000/svg">
  <defs>
    <pattern id="BGPattern" patternUnits="userSpaceOnUse" alignment="0 0" imageRepeat="None" />
    <mask fill="white" id="Clip3">
      <path d="M 6.712662337662331 0.14544439935065157  C 6.856601731601729 0.29002637987012747  6.928571428571415 0.46124188311688386  7 0.6590909090909207  L 7 10.88636363636364  C 6.928571428571415 11.084212662337663  6.856601731601729 11.25542816558442  6.712662337662331 11.400010146103895  C 6.568722943722932 11.544592126623385  6.398268398268397 11.616883116883116  6.201298701298696 11.616883116883116  C 6.004329004328995 11.616883116883116  5.83387445887446 11.544592126623385  5.689935064935062 11.400010146103895  L 0.5990259740259802 6.286373782467535  C 0.45508658008658104 6.1417918019480595  0.3831168831168947 5.970576298701303  0.3831168831168947 5.7727272727272805  C 0.3831168831168947 5.574878246753258  0.45508658008658104 5.403662743506501  0.5990259740259802 5.2590807629870255  L 5.689935064935062 0.14544439935065157  C 5.83387445887446 0.0008624188311756598  6.004329004328995 -0.0714285714285694  6.201298701298696 -0.0714285714285694  C 6.398268398268397 -0.0714285714285694  6.568722943722932 0.0008624188311756598  6.712662337662331 0.14544439935065157  Z " fill-rule="evenodd" />
    </mask>
  </defs>
  <g transform="matrix(1 0 0 1 -19 -134 )">
    <path d="M 6.712662337662331 0.14544439935065157  C 6.856601731601729 0.29002637987012747  6.928571428571415 0.46124188311688386  7 0.6590909090909207  L 7 10.88636363636364  C 6.928571428571415 11.084212662337663  6.856601731601729 11.25542816558442  6.712662337662331 11.400010146103895  C 6.568722943722932 11.544592126623385  6.398268398268397 11.616883116883116  6.201298701298696 11.616883116883116  C 6.004329004328995 11.616883116883116  5.83387445887446 11.544592126623385  5.689935064935062 11.400010146103895  L 0.5990259740259802 6.286373782467535  C 0.45508658008658104 6.1417918019480595  0.3831168831168947 5.970576298701303  0.3831168831168947 5.7727272727272805  C 0.3831168831168947 5.574878246753258  0.45508658008658104 5.403662743506501  0.5990259740259802 5.2590807629870255  L 5.689935064935062 0.14544439935065157  C 5.83387445887446 0.0008624188311756598  6.004329004328995 -0.0714285714285694  6.201298701298696 -0.0714285714285694  C 6.398268398268397 -0.0714285714285694  6.568722943722932 0.0008624188311756598  6.712662337662331 0.14544439935065157  Z " fill-rule="nonzero" fill="rgba(204, 204, 204, 1)" stroke="none" transform="matrix(1 0 0 1 19 134 )" class="fill" />
    <path d="M 6.712662337662331 0.14544439935065157  C 6.856601731601729 0.29002637987012747  6.928571428571415 0.46124188311688386  7 0.6590909090909207  L 7 10.88636363636364  C 6.928571428571415 11.084212662337663  6.856601731601729 11.25542816558442  6.712662337662331 11.400010146103895  C 6.568722943722932 11.544592126623385  6.398268398268397 11.616883116883116  6.201298701298696 11.616883116883116  C 6.004329004328995 11.616883116883116  5.83387445887446 11.544592126623385  5.689935064935062 11.400010146103895  L 0.5990259740259802 6.286373782467535  C 0.45508658008658104 6.1417918019480595  0.3831168831168947 5.970576298701303  0.3831168831168947 5.7727272727272805  C 0.3831168831168947 5.574878246753258  0.45508658008658104 5.403662743506501  0.5990259740259802 5.2590807629870255  L 5.689935064935062 0.14544439935065157  C 5.83387445887446 0.0008624188311756598  6.004329004328995 -0.0714285714285694  6.201298701298696 -0.0714285714285694  C 6.398268398268397 -0.0714285714285694  6.568722943722932 0.0008624188311756598  6.712662337662331 0.14544439935065157  Z " stroke-width="0" stroke-dasharray="0" stroke="rgba(255, 255, 255, 0)" fill="none" transform="matrix(1 0 0 1 19 134 )" class="stroke" mask="url(#Clip3)" />
  </g>
</svg>