<?xml version="1.0" encoding="utf-8"?>
<svg version="1.1" xmlns:xlink="http://www.w3.org/1999/xlink" width="20px" height="20px" preserveAspectRatio="xMinYMid meet" viewBox="133 1153 20 18" xmlns="http://www.w3.org/2000/svg">
  <defs>
    <mask fill="white" id="Clip46">
      <path d="M 1200 1328  L 1320 1328  L 1320 1383  L 1200 1383  Z M 133 1147  L 2381 1147  L 2381 1383  L 133 1383  Z " fill-rule="evenodd" />
    </mask>
  </defs>
  <path d="M 2378 1157  L 2378 1273  A 3 3 0 0 1 2381 1276 A 3 3 0 0 1 2378 1279 L 2378 1350  A 5 5 0 0 1 2373 1355 L 148 1355  A 5 5 0 0 1 143 1350 L 143 1163  " stroke-width="2" stroke-dasharray="0" stroke="rgba(0, 153, 204, 1)" fill="none" class="stroke" mask="url(#Clip46)" />
  <path d="M 150.6 1164  L 143 1157  L 135.4 1164  L 150.6 1164  Z " fill-rule="nonzero" fill="rgba(0, 153, 204, 1)" stroke="none" class="fill" mask="url(#Clip46)" />
</svg>