<?xml version="1.0" encoding="utf-8"?>
<svg version="1.1" xmlns:xlink="http://www.w3.org/1999/xlink" width="101px" height="39px" xmlns="http://www.w3.org/2000/svg">
  <defs>
    <pattern id="BGPattern" patternUnits="userSpaceOnUse" alignment="0 0" imageRepeat="None" />
    <mask fill="white" id="Clip51">
      <path d="M 31 39  L 0 19.5  L 31 0  L 31 11  L 101 11  L 101 28  L 31 28  L 31 39  Z " fill-rule="evenodd" />
    </mask>
  </defs>
  <g transform="matrix(1 0 0 1 -291 -3536 )">
    <path d="M 31 39  L 0 19.5  L 31 0  L 31 11  L 101 11  L 101 28  L 31 28  L 31 39  Z " fill-rule="nonzero" fill="rgba(255, 255, 255, 1)" stroke="none" transform="matrix(1 0 0 1 291 3536 )" class="fill" />
    <path d="M 31 39  L 0 19.5  L 31 0  L 31 11  L 101 11  L 101 28  L 31 28  L 31 39  Z " stroke-width="2" stroke-dasharray="0" stroke="rgba(121, 121, 121, 1)" fill="none" transform="matrix(1 0 0 1 291 3536 )" class="stroke" mask="url(#Clip51)" />
  </g>
</svg>